<svg id="A-O_Insurance" data-name="A-O Insurance" xmlns="http://www.w3.org/2000/svg" viewBox="0 0 215.32 46.48"><defs><style>.cls-1{fill:#fff;}</style></defs><path class="cls-1" d="M80.81,67.4h2.93V79.92H80.81Z" transform="translate(-36.7 -33.62)"/><path class="cls-1" d="M92.75,79.92H90V67.4h3.08l4.69,7.89,0-7.89h2.77V79.92H97.33L92.7,72.15Z" transform="translate(-36.7 -33.62)"/><path class="cls-1" d="M110.53,77.51c1.06,0,1.79-.39,1.79-1.18,0-2.27-6.15-.6-6.15-5.16,0-2.63,2-4,4.49-4a7.24,7.24,0,0,1,4.43,1.55l-1.24,1.93a5.84,5.84,0,0,0-3-1c-1.06,0-1.79.42-1.79,1.21,0,2.29,6.23.47,6.23,5.16,0,2.68-2,4-4.59,4a7.49,7.49,0,0,1-4.87-1.83l1.26-2A6.14,6.14,0,0,0,110.53,77.51Z" transform="translate(-36.7 -33.62)"/><path class="cls-1" d="M127.8,67.4h2.85v7.89a5,5,0,0,1-10,0V67.4h2.89v7.91a2.13,2.13,0,0,0,2.21,2.21,2,2,0,0,0,2.07-2.21Z" transform="translate(-36.7 -33.62)"/><path class="cls-1" d="M136.75,67.4h4.67c2.83,0,4.56,1.66,4.56,4a3.84,3.84,0,0,1-2.31,3.64l3,4.85h-3.42l-2.46-4.4h-1.15v4.4h-2.86ZM141.2,73c1.17,0,1.87-.56,1.87-1.57s-.76-1.58-1.87-1.58h-1.59V73Z" transform="translate(-36.7 -33.62)"/><path class="cls-1" d="M158.57,77.2h-4.23l-.85,2.72h-3l4.37-12.52h3.31l4.42,12.52h-3.15Zm-.73-2.4-1.4-4.39-1.38,4.39Z" transform="translate(-36.7 -33.62)"/><path class="cls-1" d="M170.3,79.92h-2.77V67.4h3.07l4.7,7.89-.05-7.89H178V79.92h-3.12l-4.63-7.77Z" transform="translate(-36.7 -33.62)"/><path class="cls-1" d="M194.48,78.47a7.27,7.27,0,0,1-4.66,1.63,6.18,6.18,0,0,1-6.29-6.39,6.3,6.3,0,0,1,6.35-6.49,7.08,7.08,0,0,1,4.59,1.66l-1.26,1.94a5.16,5.16,0,0,0-3-1.06,3.88,3.88,0,0,0,0,7.75,5.17,5.17,0,0,0,3-1Z" transform="translate(-36.7 -33.62)"/><path class="cls-1" d="M199.65,67.4h8.23v2.52h-5.35v2.44h4.65v2.5h-4.65v2.55H208v2.51h-8.36Z" transform="translate(-36.7 -33.62)"/><path class="cls-1" d="M105.58,43.78c-.67,0-1-.26-.79-.91l1.63-3.77h-5.87L98.89,43a1.23,1.23,0,0,1-1.31.78H95.7l-.86,2h1.79c1.18,0,.78.61.33,1.69-.09.21-1.73,3.75-2.53,5.86a19.28,19.28,0,0,0-1.07,3.12c-.52,2.61.44,3.74,2.16,3.74,3.41,0,6.08-3.06,6.87-4.9a3.45,3.45,0,0,0,.14-.36c.1-.44-.25-.59-.6-.42a2.89,2.89,0,0,0-.38.26c-.67.51-1.48,1.45-2,1.32s-.2-.78,0-1.35c1.38-3.07,2.84-6.54,3.64-8.3a1.08,1.08,0,0,1,1.09-.67h2l.83-2Z" transform="translate(-36.7 -33.62)"/><polygon class="cls-1" points="87.19 15.93 85.16 20.64 94.12 20.64 96.16 15.93 87.19 15.93"/><path class="cls-1" d="M236.2,43.87c-1.79.37-2.83,2-3.46,3.27.41-1.62.2-3.34-2.18-3.34-4.51,0-6.76,5.1-6.36,5.45s2-1.75,2.85-1.42c.52.19,0,1.12-.18,1.67h0c-1.3,3.19-4.12,8.69-4.88,10.67h5.55l2.94-6.82c1-2.39,2.76-6.17,4.46-5.46A2.55,2.55,0,0,0,237,49a2.59,2.59,0,0,0,2.58-2.58A2.66,2.66,0,0,0,236.2,43.87Z" transform="translate(-36.7 -33.62)"/><path class="cls-1" d="M223.72,47c0-2.21-2-3.21-4.37-3.21-6,0-12.31,6.82-12.31,11.57,0,2.95,2.09,4.79,5.28,4.79a9.14,9.14,0,0,0,3.81-.88,7.69,7.69,0,0,0,1.59-1,7.8,7.8,0,0,0,2.65-3.39c.11-.44-.23-.59-.57-.42a3.25,3.25,0,0,0-.72.51c-1.15,1-4.06,3-5.65,2-1.42-.85.37-3.7.37-3.7C221.16,51.86,223.72,49.14,223.72,47Zm-5.07-1.51c1.57.05-.35,5.79-3,5.59C214.11,51,216.75,45.46,218.65,45.51Z" transform="translate(-36.7 -33.62)"/><path class="cls-1" d="M159.05,35.81c-3.78-3.3-10.26-2.36-14.28-.35-5.66,3.18-10,9-10.49,15.33-.24,3.07.58,5.91,3.06,7.79,5.08,3.19,11.8,1,16.17-2a22.34,22.34,0,0,0,7.66-11.09C162.12,42.18,161.65,38.29,159.05,35.81Zm-15.9,22.63c-5.47,0,5-22.72,9.82-22.65C157.32,35.79,149.05,58.43,143.15,58.44Z" transform="translate(-36.7 -33.62)"/><path class="cls-1" d="M205.48,54.49a6.73,6.73,0,0,0-1.17,1c-.53.43-1.09.81-1.48.57-.86-.52,4-6.24,4-8.86.05-1.47-.43-3.33-3.49-3.4-2.33-.06-4.88,2.14-6.29,3.31.24-1.75-.23-3.31-2.65-3.31-4.51,0-7.34,5.1-6.94,5.45s2-1.75,2.85-1.42c.52.19,0,1.12-.18,1.67-1.22,3.12-4,8.61-4.79,10.67h5.46c3.67-8.44,6.86-11.6,8.64-12.28.57-.22,1.08-.11,1,.31-.29,2.09-8.47,12-1.4,12a6.37,6.37,0,0,0,2.76-.7h0l.52-.28.16-.1.34-.22.36-.26a.39.39,0,0,1,.1-.08,8.39,8.39,0,0,0,2.69-3.61C206.16,54.47,205.83,54.32,205.48,54.49Z" transform="translate(-36.7 -33.62)"/><path class="cls-1" d="M114.72,43.79c11.09,0,6.73,16.37-5.31,16.37C99.29,60.16,103.08,43.79,114.72,43.79Zm-5.39,14.65c3.42,0,8.15-12.91,5.63-12.91C112.17,45.49,106.16,58.45,109.33,58.44Z" transform="translate(-36.7 -33.62)"/><path class="cls-1" d="M92.09,54.49c-.7.34-1.86,1.78-2.37,1.59s0-1.15.21-1.69c1.34-3.06,3.71-8.54,4.59-10.61H89.18c-3.93,9-7.41,11.94-9,12.28-.36,0-.62-.08-.58-.4.13-1.12,1.77-3.2,3.25-6.61.31-.7,1.63-3.6.18-4.73-.75-.59-3.19-1.26-6.28,1.12-2,1.51-2.89,3.66-2.61,3.84.53.35,2-1.85,2.89-1.45.41.2,0,1.14-.51,2.11-1.22,2.1-3.19,5.71-3.23,7.43,0,1.31.59,2.79,3.51,2.79,1.89,0,4-.61,6.67-3.39h0c-.5,1.92-.23,3.39,2.17,3.39,4.11,0,6.78-4.14,7-5.26C92.77,54.47,92.45,54.32,92.09,54.49Z" transform="translate(-36.7 -33.62)"/><path class="cls-1" d="M184.4,43.79a2.57,2.57,0,0,0-.91,5c-.14.25-4.68,8.45-7.19,7.31-.77-.35,1.1-3.12,4.07-10.26h-5.2c-3.36,7.42-7,10.23-8.26,10.24-.32,0-.51-.13-.45-.51.42-1.55,2.25-3.92,3.39-6.51a6.1,6.1,0,0,0,.73-3.44c-.13-.69-.57-1.82-2.68-1.82-3.37,0-5.6,2.79-6.34,4-.5.81-.71,1.42-.54,1.52s.56-.07.91-.4c1.24-1.13,1.81-1.13,2-1s.1,1.08-.7,2.31c-.19.33-2.69,3.63-2.93,6.83-.12,1.7.48,3.14,3.16,3.16,3.49,0,5.91-2.25,7-3.39-.23,1.75.46,3.39,3.65,3.39,2.59,0,6.6-2.14,9.52-6.32a25,25,0,0,0,1.82-3c.34-.73,1.56-2.91,1.54-4.48A2.59,2.59,0,0,0,184.4,43.79Z" transform="translate(-36.7 -33.62)"/><path class="cls-1" d="M244.41,44.11a5.4,5.4,0,0,0-4,6.94c1.11,3,3.33,3.55,3.17,5.8a1.92,1.92,0,0,1-2.4,1.68,2.58,2.58,0,1,0-4.56-1.67c0,2.27,2.73,3.32,5,3.31,6.82-.06,8.25-5.62,5.8-8.56-1.07-1.44-2.52-2.36-2.5-4.34a1.93,1.93,0,0,1,1.94-1.93,1.62,1.62,0,0,1,.64.13,2.53,2.53,0,0,0-.68,1.73,2.59,2.59,0,0,0,5.17,0C252,44.37,247.85,43.15,244.41,44.11Z" transform="translate(-36.7 -33.62)"/><path class="cls-1" d="M248.68,58.5a1.66,1.66,0,1,1,.49,1.17A1.6,1.6,0,0,1,248.68,58.5Zm3,0a1.37,1.37,0,0,0-2.35-1,1.29,1.29,0,0,0-.41,1,1.38,1.38,0,0,0,2.35,1A1.36,1.36,0,0,0,251.72,58.5Z" transform="translate(-36.7 -33.62)"/><path class="cls-1" d="M249.71,57.57h.67a.58.58,0,0,1,.64.58.54.54,0,0,1-.38.54l.45.74h-.37l-.4-.7H250v.7h-.31Zm.63.89c.23,0,.37-.11.37-.31s-.15-.3-.37-.3H250v.61Z" transform="translate(-36.7 -33.62)"/><path class="cls-1" d="M52.47,52.56c-1.94,2-3.67,4.08-7.21,4.06a3.64,3.64,0,0,1-2.73-1,3.76,3.76,0,0,0,2.06-3.41,3.9,3.9,0,0,0-3.91-3.9,4,4,0,0,0-3.58,2.37c-1.89,4.28,3.18,9.51,7.87,9.51,6.35,0,7.86-3.14,14-9.36h5.25l-2.53,5.85a1.43,1.43,0,0,1-1.52,1H58.76l-1.1,2.53H70.42l1.09-2.53H70.43c-1.29,0-1.45-.43-1.06-1.32l9.8-22.7H70.46Zm12.82-4.22h-4l7.3-7.67Z" transform="translate(-36.7 -33.62)"/></svg>