<svg xmlns="http://www.w3.org/2000/svg" width="70.721" height="81.853" viewBox="0 0 70.721 81.853">
  <g id="Layer_2" data-name="Layer 2" transform="translate(-26.9 0.002)">
    <g id="Layer_1" data-name="Layer 1" transform="translate(28.06 0.33)">
      <path id="Path_353" data-name="Path 353" d="M150.892,77.459a24.964,24.964,0,0,0-12.887-21.846" transform="translate(-83.501 -28.207)" fill="none" stroke="#fff" stroke-width="4.34"/>
      <path id="Path_354" data-name="Path 354" d="M117.14,63.376v0h0l10.54-37.369L117.14,63.376h0l16.216-36.383L117.14,63.376,130.927,23.35,117.14,63.376h0" transform="translate(-72.979 -11.938)" fill="none" stroke="#fff" stroke-width="4.34"/>
      <line id="Line_54" data-name="Line 54" x1="36.239" y1="34.539" transform="translate(7.198 16.9)" fill="none" stroke="#fff" stroke-width="4.34"/>
      <path id="Path_355" data-name="Path 355" d="M115.63,68.463l14.064-36.4Z" transform="translate(-72.218 -16.33)" fill="none" stroke="#231f20" stroke-width="3.74"/>
      <line id="Line_55" data-name="Line 55" x1="1.205" y1="38.871" transform="translate(42.233 12.567)" fill="none" stroke="#fff" stroke-width="4.34"/>
      <line id="Line_56" data-name="Line 56" x1="30.017" y1="30.33" transform="translate(13.42 21.109)" fill="none" stroke="#fff" stroke-width="4.34"/>
      <line id="Line_57" data-name="Line 57" x1="8.304" y1="41.618" transform="translate(35.133 9.821)" fill="none" stroke="#fff" stroke-width="4.51"/>
      <path id="Path_356" data-name="Path 356" d="M116.64,66.642l5.071-38.192L116.64,66.642l5.989-35.233" transform="translate(-72.727 -14.51)" fill="none" stroke="#fff" stroke-width="4.34"/>
      <line id="Line_58" data-name="Line 58" y1="40.854" x2="16.94" transform="translate(43.437 10.584)" fill="none" stroke="#fff" stroke-width="4.34"/>
      <line id="Line_59" data-name="Line 59" x1="8.383" y2="20.544" transform="translate(49.485 15.234)" fill="none" stroke="#231f20" stroke-width="4.39"/>
      <line id="Line_60" data-name="Line 60" x1="4.571" y2="16.107" transform="translate(50.477 17.777)" fill="none" stroke="#231f20" stroke-width="4.39"/>
      <line id="Line_61" data-name="Line 61" x2="8.066" y2="42.758" transform="translate(35.371 8.185)" fill="none" stroke="#fff" stroke-width="4.51"/>
      <path id="Path_357" data-name="Path 357" d="M65.429,82.746,45.708,72.975m19.721,9.771L38.54,71.84M65.429,82.746l-25.585-8.2" transform="translate(-33.345 -36.389)" fill="none" stroke="#fff" stroke-width="6.51"/>
      <path id="Path_358" data-name="Path 358" d="M69.173,92.634,37.7,87.3m31.475,5.334-34.6-3.54" transform="translate(-31.343 -44.185)" fill="none" stroke="#fff" stroke-width="4.24"/>
      <path id="Path_359" data-name="Path 359" d="M62.969,115.62,43.2,123.775m19.765-8.155L37.726,128.48m25.243-12.86L33.74,133.655" transform="translate(-30.924 -58.466)" fill="none" stroke="#fff" stroke-width="6.51"/>
      <path id="Path_360" data-name="Path 360" d="M28.06,136.624l38-24.034-26.84,19.488" transform="translate(-28.06 -56.938)" fill="none" stroke="#fff" stroke-width="4.34"/>
      <path id="Path_361" data-name="Path 361" d="M85.817,99l-26.5,5.414M85.817,99,58.11,106.362M85.817,99l-26.027,8.2" transform="translate(-43.213 -50.085)" fill="none" stroke="#fff" stroke-width="4.34"/>
      <path id="Path_362" data-name="Path 362" d="M67.2,117.75,46,130.02Z" transform="translate(-37.106 -59.54)" fill="none" stroke="#231f20" stroke-width="4.34"/>
      <line id="Line_62" data-name="Line 62" y1="11.586" x2="17.559" transform="translate(14.312 58.255)" fill="none" stroke="#231f20" stroke-width="4.34"/>
      <path id="Path_363" data-name="Path 363" d="M46,102.253l33.334-1.983-29.442,3.47" transform="translate(-37.106 -50.725)" fill="none" stroke="#fff" stroke-width="4.34"/>
      <path id="Path_364" data-name="Path 364" d="M81.528,64.175l-26.4-27.39m26.4,27.39L62.541,41.529M81.528,64.175,59.76,34.43" transform="translate(-41.71 -17.525)" fill="none" stroke="#fff" stroke-width="4.34"/>
      <path id="Path_365" data-name="Path 365" d="M70.359,63.288,37,35.06M70.359,63.317,42.4,42.3M70.359,63.288,48.819,49.447m21.54,13.881L42.453,47.989" transform="translate(-32.568 -17.843)" fill="none" stroke="#fff" stroke-width="4.34"/>
      <path id="Path_366" data-name="Path 366" d="M81.531,69.155,53.69,48.16M81.531,69.155,60.08,55.3M81.531,69.155,53.715,53.841M81.531,69.155,55.38,57.148" transform="translate(-40.984 -24.449)" fill="none" stroke="#fff" stroke-width="4.33"/>
      <path id="Path_367" data-name="Path 367" d="M72.411,63.044,51.768,47.14m20.643,15.9L57.152,53.4m15.259,9.642L59.373,51.612,46.34,40.18M72.411,63.044,62.035,51.612" transform="translate(-37.278 -20.425)" fill="none" stroke="#231f20" stroke-width="3.74"/>
      <path id="Path_368" data-name="Path 368" d="M98.99,70.545,82.9,40.582M98.99,70.545,82.63,36.19M98.99,70.545,86.883,40.354M98.99,70.545l-9.617-29.08" transform="translate(-55.577 -18.413)" fill="none" stroke="#fff" stroke-width="4.34"/>
      <path id="Path_369" data-name="Path 369" d="M105.2,43.618,102.188,8.178m3.019,35.441L98.757.33M105.2,43.618l-6.484-35.2m6.474,35.2L95.49,6.839" transform="translate(-62.062 -0.33)" fill="none" stroke="#fff" stroke-width="4.51"/>
      <path id="Path_370" data-name="Path 370" d="M52.308,78.65,81.527,90.964,47.95,78.06" transform="translate(-38.09 -39.526)" fill="none" stroke="#231f20" stroke-width="4.39"/>
      <path id="Path_371" data-name="Path 371" d="M106.345,25.813l2.637,29.532-4.392-31.5" transform="translate(-66.651 -12.185)" fill="none" stroke="#231f20" stroke-width="4.39"/>
      <circle id="Ellipse_52" data-name="Ellipse 52" cx="20.425" cy="20.425" r="20.425" transform="translate(22.502 28.585)" fill="#231f20" stroke="#fff" stroke-width="4.34"/>
      <rect id="Rectangle_81" data-name="Rectangle 81" width="31.445" height="11.521" transform="matrix(0.726, -0.687, 0.687, 0.726, 20.603, 73.049)" fill="#231f20"/>
      <circle id="Ellipse_53" data-name="Ellipse 53" cx="22.576" cy="22.576" r="22.576" transform="translate(20.35 26.433)" fill="none" stroke="#231f20" stroke-width="4.34"/>
      <path id="Path_372" data-name="Path 372" d="M71,128.052,93.165,107.36l7.015,7.491" transform="translate(-49.713 -54.3)" fill="none" stroke="#fff" stroke-width="4.34"/>
    </g>
  </g>
</svg>
